# AST/ASF file generated using VICON BodyLanguage
# -----------------------------------------------
:version 1.10
:name VICON
:units
  mass 1.0
  length 0.45
  angle deg
:documentation
   .ast/.asf automatically generated from VICON data using
   VICON BodyBuilder and BodyLanguage model FoxedUp or BRILLIANT.MOD
:root
   order TX TY TZ RX RY RZ
   axis XYZ
   position 0 0 0  
   orientation 0 0 0 
:bonedata
  begin
     id 1 
     name lhipjoint
     direction 0.528046 -0.759594 0.379717 
     length 2.39752 
     axis 0 0 0  XYZ
  end
  begin
     id 2 
     name lfemur
     direction 0.34202 -0.939693 0  
     length 7.31175  
     axis 0 0 20  XYZ
    dof rx ry rz
    limits (-160.0 20.0)
           (-70.0 70.0)
           (-60.0 70.0)
  end
  begin
     id 3 
     name ltibia
     direction 0.34202 -0.939693 0   
     length 7.52482   
     axis 0 0 20   XYZ
    dof rx
    limits (-10.0 170.0)
  end
  begin
     id 4 
     name lfoot
     direction 0.0675379 -0.185559 0.980309   
     length 2.00961   
     axis -90 7.62852e-016 20   XYZ
    dof rx rz
    limits (-45.0 90.0)
           (-70.0 20.0)
  end
  begin
     id 5 
     name ltoes
     direction 1.5352e-011 -4.22286e-011 1   
     length 1.01383   
     axis -90 7.62852e-016 20   XYZ
    dof rx
    limits (-90.0 20.0)
  end
  begin
     id 6 
     name rhipjoint
     direction -0.510274 -0.769251 0.384544   
     length 2.36742  
     axis 0 0 0  XYZ 
  end
  begin
     id 7 
     name rfemur
     direction -0.34202 -0.939693 0   
     length 7.45325   
     axis 0 0 -20   XYZ
    dof rx ry rz
    limits (-160.0 20.0)
           (-70.0 70.0)
           (-70.0 60.0)
  end
  begin
     id 8 
     name rtibia
     direction -0.34202 -0.939693 0   
     length 7.49587   
     axis 0 0 -20   XYZ
    dof rx
    limits (-10.0 170.0)
 end
 begin
     id 9 
     name rfoot
     direction -0.106475 -0.292536 0.950308   
     length 2.20898  
     axis -90 -7.62852e-016 -20   XYZ
    dof rx rz
    limits (-45.0 90.0)
           (-20.0 70.0)
  end
  begin
     id 10 
     name rtoes
     direction -1.53597e-011 -4.22023e-011 1   
     length 1.10065   
     axis -90 -7.62852e-016 -20   XYZ
    dof rx
    limits (-90.0 20.0)
  end
  begin
     id 11 
     name lowerback
     direction 0.0260024 0.998026 -0.0571652   
     length 2.11214   
     axis 0 0 0   XYZ
    dof rx ry rz
    limits (-20.0 45.0)
           (-30.0 30.0)
           (-30.0 30.0)
  end
  begin
     id 12 
     name upperback
     direction 0.0216202 0.999542 -0.0211766   
     length 2.11689   
     axis 0 0 0   XYZ
    dof rx ry rz
    limits (-20.0 45.0)
           (-30.0 30.0)
           (-30.0 30.0)
  end
  begin
     id 13 
     name thorax
     direction 0.00883312 0.999944 0.00589057   
     length 2.11821   
     axis 0 0 0   XYZ
    dof rx ry rz
    limits (-20.0 45.0)
           (-30.0 30.0)
           (-30.0 30.0)
  end
  begin
     id 14 
     name lowerneck
     direction -0.059386 0.994433 0.0870401   
     length 1.81176   
     axis 0 0 0   XYZ
    dof rx ry rz
    limits (-20.0 45.0)
           (-30.0 30.0)
           (-30.0 30.0)
  end
  begin
     id 15 
     name upperneck
     direction 0.0506457 0.97328 -0.223967   
     length 1.82382   
     axis 0 0 0   XYZ
    dof rx ry rz
    limits (-20.0 45.0)
           (-30.0 30.0)
           (-30.0 30.0)
  end
  begin
     id 16
     name head
     direction 0.0205902 0.996147 -0.0852487  
     length 1.84805  
     axis 0 0 0   XYZ
    dof rx ry rz
    limits (-20.0 45.0)
           (-30.0 30.0)
           (-30.0 30.0)
  end
  begin
     id 17 
     name lclavicle
     direction 0.949493 0.303881 -0.0782325  
     length 3.60584  
     axis 0 0 0   XYZ
    dof ry rz
    limits (-20.0 10.0)
           (0.0 20.0)
  end
  begin
     id 18 
     name lhumerus
     direction 1 -4.48965e-011 1.48782e-027   
     length 4.95681   
     axis 180 -30 -90   XYZ
    dof rx ry rz
    limits (-60.0 90.0)
           (-90.0 90.0)
           (-90.0 90.0)
  end
  begin
     id 19
     name lradius
     direction 1 -4.48952e-011 2.06528e-027   
     length 3.40915   
     axis 180 -30 -90   XYZ
    dof rx
    limits (-10.0 170.0)
  end
  begin
     id 20
     name lwrist
     direction 1 -4.48964e-011 1.28021e-027   
     length 1.70457   
     axis -1.61767e-015 90 90   XYZ
    dof ry
    limits (-180.0 0.0)
 end
  begin
     id 21 
     name lhand
     direction 1 -4.49094e-011 2.54887e-027   
     length 0.616403   
     axis -1.63363e-015 90 90   XYZ
    dof rx rz
    limits (-90.0 90.0)
           (-45.0 45.0)
  end
  begin
     id 22 
     name lfingers
     direction 1 -4.49002e-011 5.11407e-027   
     length 0.49696   
     axis -3.26723e-015 90 90   XYZ
    dof rx
    limits (0.0 90.0)
  end
  begin
     id 23
     name lthumb
     direction 0.707107 -6.34998e-011 0.707107   
     length 0.713539   
     axis -90 45 -2.25915e-014   XYZ
    dof rx rz
    limits (-45.0 45.0)
           (-45.0 45.0)
  end
  begin
     id 24 
     name rclavicle
     direction -0.937751 0.334612 -0.0930482   
     length 3.46287  
     axis 0 0 0   XYZ 
    dof ry rz
    limits (-10.0 20.0)
           (-20.0 0.0)
  end
  begin
     id 25 
     name rhumerus
     direction -1 -4.48962e-011 3.59972e-027  
     length 5.352   
     axis 180 30 90   XYZ
    dof rx ry rz
    limits (-90.0 60.0)
           (-90.0 90.0)
           (-90.0 90.0)
  end
  begin
     id 26 
     name rradius
     direction -1 -4.48987e-011 -3.76925e-027   
     length 3.43721   
     axis 180 30 90   XYZ
    dof rx
    limits (-10.0 170.0)
  end
  begin
     id 27 
     name rwrist
     direction -1 -4.48943e-011 1.28112e-027   
     length 1.7186   
     axis -1.61767e-015 -90 -90   XYZ
    dof ry
    limits (-180.0 0.0)
  end
  begin
     id 28
     name rhand
     direction -1 -4.49027e-011 2.55483e-027   
     length 0.72009   
     axis -1.63363e-015 -90 -90   XYZ
    dof rx rz
    limits (-90.0 90.0)
           (-45.0 45.0)
  end
  begin
     id 29
     name rfingers
     direction -1 -4.48827e-011 5.14506e-027   
     length 0.580555   
     axis -3.26723e-015 -90 -90   XYZ
    dof rx
    limits (0.0 90.0)
  end
  begin
     id 30
     name rthumb
     direction -0.707107 -6.34936e-011 0.707107   
     length 0.833564   
     axis -90 -45 2.25915e-014   XYZ
    dof rx rz
    limits (-45.0 45.0)
           (-45.0 45.0)
  end
:hierarchy
  begin
    root lhipjoint rhipjoint lowerback
    lhipjoint lfemur
    lfemur ltibia
    ltibia lfoot
    lfoot ltoes
    rhipjoint rfemur
    rfemur rtibia
    rtibia rfoot
    rfoot rtoes
    lowerback upperback
    upperback thorax
    thorax lowerneck lclavicle rclavicle
    lowerneck upperneck
    upperneck head
    lclavicle lhumerus
    lhumerus lradius
    lradius lwrist
    lwrist lhand lthumb
    lhand lfingers
    rclavicle rhumerus
    rhumerus rradius
    rradius rwrist
    rwrist rhand rthumb
    rhand rfingers
  end

#!OML:ASF H:\Terrain\Patient Classification 1\Terrain2\Thursday\justin.ASF
:FULLY-SPECIFIED
:DEGREES
261
root -12.6687 17.6495 19.6605 -17.2173 75.9831 -16.2076
lowerback 3.85013 0.746614 2.32406
upperback 2.02112 1.16689 3.77172
thorax -0.115865 0.615522 2.52627
lowerneck -14.5931 -0.790942 -6.95124
upperneck 35.6011 2.33249 -0.37961
head 14.7465 0.399335 1.55667
rclavicle 1.64494e-014 1.03368e-014
rhumerus -30.6634 -11.279 -76.0637
rradius 26.0387
rwrist -10.5029
rhand -23.6821 11.2721
rfingers 7.12502
rthumb 2.78436 -18.6895
lclavicle 1.64494e-014 1.03368e-014
lhumerus -35.1027 2.0398 86.066
lradius 28.5686
lwrist 1.47172
lhand -17.2513 21.0481
lfingers 7.12502
lthumb 8.99286 50.8365
rfemur -15.0443 -16.4326 21.7633
rtibia 52.8831
rfoot -16.7693 -10.3578
rtoes 5.05488
lfemur -9.32687 3.49575 -18.3725
ltibia 26.1176
lfoot -11.9695 -9.54493
ltoes 18.3493
262
root -12.676 17.6503 19.6821 -20.8192 76.9457 -20.0207
lowerback 3.86942 0.539595 2.54397
upperback 1.88942 0.914631 4.03347
thorax -0.255811 0.492412 2.68215
lowerneck -14.4763 -0.767072 -7.06738
upperneck 35.4836 2.38953 -0.368695
head 14.6621 0.417196 1.58838
rclavicle -7.15625e-015 -3.18055e-015
rhumerus -30.6618 -11.1303 -76.1838
rradius 26.0646
rwrist -10.1523
rhand -23.6561 11.8595
rfingers 7.12502
rthumb 2.80952 -18.1018
lclavicle -7.15625e-015 -3.18055e-015
lhumerus -35.1949 1.41442 86.5664
lradius 29.1762
lwrist 2.22662
lhand -17.4931 21.5841
lfingers 7.12502
lthumb 8.75955 51.3823
rfemur -15.2034 -16.4622 22.5718
rtibia 52.1187
rfoot -17.9259 -9.56734
rtoes 3.46881
lfemur -9.83697 3.14601 -17.642
ltibia 26.5089
lfoot -11.7696 -10.7307
ltoes 20.7307
263
root -12.6391 17.657 19.6897 -19.5688 77.9143 -18.5577
lowerback 3.65697 0.446459 1.99155
upperback 1.98367 0.749548 3.82154
thorax -0.0398765 0.404591 2.78246
lowerneck -14.5511 -0.791861 -7.09644
upperneck 35.479 2.40278 -0.443543
head 14.6795 0.409677 1.56585
rclavicle 1.02871e-014 7.95139e-015
rhumerus -30.6324 -10.9019 -76.5104
rradius 26.1394
rwrist -10.1981
rhand -23.4118 12.264
rfingers 7.12502
rthumb 3.04537 -17.694
lclavicle 1.02871e-014 7.95139e-015
lhumerus -35.1441 1.88396 86.4161
lradius 29.6276
lwrist 2.08938
lhand -17.2637 21.9015
lfingers 7.12502
lthumb 8.98093 51.6904
rfemur -14.7562 -16.6816 21.6229
rtibia 51.3294
rfoot -19.4049 -7.62161
rtoes 5.75941
lfemur -9.5611 2.43143 -18.3511
ltibia 26.6729
lfoot -11.8289 -11.0822
ltoes 22.0598
264
root -12.6302 17.6553 19.7095 -21.8869 78.729 -20.8366
lowerback 3.67965 0.329897 2.11417
upperback 2.03024 0.597944 3.77095
thorax 0.00219018 0.330344 2.66691
lowerneck -14.8119 -0.894892 -6.96613
upperneck 35.5387 2.27915 -0.554388
head 14.7763 0.353959 1.48045
rclavicle -2.83268e-015 2.14687e-014
rhumerus -30.7646 -10.2064 -77.093
rradius 26.7344
rwrist -10.6587
rhand -22.9481 11.9373
rfingers 7.12502
rthumb 3.49323 -18.0139
lclavicle -2.83268e-015 2.14687e-014
lhumerus -34.7458 2.32457 86.1106
lradius 29.581
lwrist 1.91867
lhand -17.299 21.8237
lfingers 7.12502
lthumb 8.94684 51.614
rfemur -14.5228 -16.7067 21.8541
rtibia 50.5125
rfoot -20.1271 -6.26904
rtoes 7.31266
lfemur -9.59502 2.03878 -18.1533
ltibia 26.7256
lfoot -11.806 -11.4402
ltoes 21.2645
265
root -12.6334 17.6424 19.7304 -23.5771 79.6911 -22.569
lowerback 3.7541 0.273406 2.01847
upperback 2.02032 0.519567 3.61858
thorax -0.0467709 0.289692 2.5655
lowerneck -14.9894 -1.05681 -6.80301
upperneck 35.5664 1.99671 -0.534331
head 14.8403 0.255353 1.41555
rclavicle -4.96962e-016 3.4191e-014
rhumerus -30.9577 -10.393 -77.3648
rradius 27.2308
rwrist -9.65109
rhand -22.1317 11.3262
rfingers 7.12502
rthumb 4.28164 -18.6105
lclavicle -4.96962e-016 3.4191e-014
lhumerus -34.3304 2.17124 85.9707
lradius 29.4881
lwrist 1.78832
lhand -17.4876 21.8552
lfingers 7.12502
lthumb 8.76483 51.6532
rfemur -14.4816 -16.6205 21.9553
rtibia 49.6496
rfoot -20.9073 -5.1807
rtoes 6.89522
lfemur -9.80192 1.7427 -18.1835
ltibia 26.7007
lfoot -11.5963 -11.9121
ltoes 21.3158
266
root -12.6187 17.6258 19.7379 -21.4688 80.853 -20.3389
lowerback 3.7168 0.267281 1.39405
upperback 2.04078 0.476951 3.24914
thorax -0.00586484 0.260905 2.53676
lowerneck -15.0946 -1.23023 -6.79593
upperneck 35.6809 1.70465 -0.381059
head 14.9266 0.152178 1.43261
rclavicle 5.2181e-015 5.56597e-015
rhumerus -31.1388 -11.0671 -77.4497
rradius 27.4613
rwrist -8.32054
rhand -21.452 11.1081
rfingers 7.12502
rthumb 4.9379 -18.8144
lclavicle 5.2181e-015 5.56597e-015
lhumerus -34.1526 2.08395 85.782
lradius 29.6407
lwrist 1.54829
lhand -17.0087 21.6714
lfingers 7.12502
lthumb 9.2269 51.4495
rfemur -14.1611 -16.4969 21.061
rtibia 48.7004
rfoot -21.881 -3.8825
rtoes 5.15116
lfemur -9.78614 0.941373 -19.1173
ltibia 26.8502
lfoot -11.6893 -11.9341
ltoes 22.3601
267
root -12.5965 17.6178 19.7447 -24.7615 81.5727 -23.6483
lowerback 3.58311 0.193794 1.69172
upperback 1.97666 0.386204 3.24647
thorax 0.00801817 0.218073 2.37029
lowerneck -14.9607 -1.32621 -7.04236
upperneck 35.6914 1.55341 -0.144214
head 14.9029 0.0929473 1.54955
rclavicle -1.46604e-014 5.08889e-014
rhumerus -31.4967 -10.6664 -77.7835
rradius 27.9405
rwrist -8.42991
rhand -21.5522 11.3015
rfingers 7.12502
rthumb 4.84114 -18.6232
lclavicle -1.46604e-014 5.08889e-014
lhumerus -34.1799 2.15898 85.7107
lradius 29.8972
lwrist 1.74886
lhand -16.6559 21.4206
lfingers 7.12502
lthumb 9.56734 51.1834
rfemur -13.783 -16.1183 21.3234
rtibia 47.5842
rfoot -22.5847 -2.95413
rtoes 4.33603
lfemur -9.86223 0.406261 -18.9499
ltibia 27.0798
lfoot -11.8983 -12.2216
ltoes 22.2192
